<?xml version="1.0" encoding="UTF-8"?>
<svg version="1.1" xmlns="http://www.w3.org/2000/svg" width="512" height="512">
<path d="M0 0 C0.99 0.33 1.98 0.66 3 1 C2.81257187 2.02840913 2.62514375 3.05681826 2.43203598 4.1163913 C0.57102883 14.42944466 -1.04444653 24.75808683 -2.51124573 35.13375854 C-2.74727878 36.78799784 -2.98356474 38.44220106 -3.22007793 40.09637177 C-3.86182254 44.58964467 -4.50012221 49.08340088 -5.13782918 53.57724833 C-5.82897645 58.44306361 -6.52344702 63.30840465 -7.21755981 68.17379761 C-8.41740696 76.58686512 -9.61538261 85.00019734 -10.81222725 93.41369247 C-12.70342348 106.70721365 -14.60029597 119.99992202 -16.49803162 133.29251099 C-17.14811533 137.84649779 -17.79815898 142.40049031 -18.44818783 146.95448494 C-18.61057606 148.09214291 -18.7729643 149.22980088 -18.94027339 150.40193333 C-20.78433989 163.32168709 -22.62715809 176.2416188 -24.46948242 189.16162109 C-24.63772634 190.34148532 -24.80597025 191.52134954 -24.97931247 192.73696722 C-27.71270509 211.90670851 -30.44229815 231.07698949 -33.17100919 250.24739765 C-35.97472894 269.9437365 -38.78432665 289.63923119 -41.59895557 309.33401406 C-43.3342062 321.47766951 -45.0645572 333.62200324 -46.78866767 345.76724543 C-47.96835367 354.07450319 -49.15357118 362.38095956 -50.34321494 370.68679713 C-51.02993022 375.48256997 -51.71407812 380.27867395 -52.39156532 385.07575989 C-53.01103636 389.46169976 -53.63750825 393.84657873 -54.26969945 398.23070265 C-54.49778175 399.82137336 -54.72322677 401.41242478 -54.94584496 403.0038694 C-55.24753562 405.15787328 -55.55857497 407.31032025 -55.87209415 409.46262932 C-56.04286097 410.66130445 -56.21362778 411.85997959 -56.38956934 413.09497821 C-57 416 -57 416 -59 419 C-65.0021384 412.08370825 -70.79253378 405.05858685 -76.3125 397.75 C-80.74381724 391.88364161 -85.29432266 386.14863747 -90 380.5 C-95.20740431 374.24680228 -100.2004997 367.86722181 -105.10546875 361.375 C-108.94955369 356.31160482 -112.9321941 351.38496144 -117 346.5 C-122.31335809 340.11924928 -127.41687008 333.61026853 -132.4284668 326.99047852 C-136.81346146 321.2076263 -141.34509734 315.56904376 -146 310 C-148.56235953 313.18323155 -150.36750336 316.4907583 -152.1875 320.14453125 C-152.48580215 320.74118591 -152.78410431 321.33784058 -153.09144592 321.95257568 C-154.06524129 323.90378688 -155.03284264 325.85799106 -156 327.8125 C-156.68534173 329.19073538 -157.37080868 330.56890849 -158.05639648 331.94702148 C-161.78564609 339.45686866 -165.46421244 346.98889842 -169.0625 354.5625 C-174.31348287 365.61074411 -179.6336385 376.62521243 -184.98287964 387.62619019 C-185.99111052 389.70217677 -186.99708721 391.77925971 -188.00076294 393.85745239 C-189.42167361 396.79850979 -190.8505083 399.73559018 -192.28125 402.671875 C-192.71207382 403.56770798 -193.14289764 404.46354095 -193.58677673 405.38652039 C-193.99190994 406.21384171 -194.39704315 407.04116302 -194.81445312 407.89355469 C-195.16544067 408.61694031 -195.51642822 409.34032593 -195.87805176 410.08563232 C-197.03835303 412.06544135 -198.31047134 413.45924486 -200 415 C-206.59891912 407.38235374 -212.67573273 399.47678369 -218.61816406 391.34008789 C-222.47928982 386.05570424 -226.38893141 380.81578554 -230.375 375.625 C-231.16052246 374.60188721 -231.16052246 374.60188721 -231.96191406 373.55810547 C-233.05589706 372.13408119 -234.15014178 370.71025794 -235.24462891 369.28662109 C-243.7005178 358.27162034 -252.10832693 347.22005292 -260.42211914 336.09741211 C-264.58181637 330.53973228 -268.78811838 325.01819829 -273 319.5 C-278.17059615 312.72574151 -283.3133349 305.93251242 -288.4152832 299.10644531 C-293.3206973 292.5526599 -298.28901812 286.04713783 -303.25610352 279.54003906 C-307.70247553 273.71238005 -312.11927789 267.86442363 -316.49609375 261.984375 C-317.84893162 260.10558515 -317.84893162 260.10558515 -319 259 C-320.93350229 258.84637461 -322.87246195 258.76100247 -324.81117249 258.70240784 C-326.04973464 258.66323462 -327.28829679 258.62406141 -328.56439114 258.58370113 C-329.93102223 258.54584813 -331.297661 258.50827129 -332.66430664 258.47094727 C-334.07639866 258.42924358 -335.48848541 258.38736104 -336.90056705 258.34530735 C-351.38837604 257.92461753 -365.87899078 257.68176515 -380.37109375 257.46484375 C-383.12932634 257.4219436 -385.88754647 257.3782649 -388.64576721 257.33460999 C-395.06561912 257.23343256 -401.48550741 257.13481302 -407.90541464 257.03721577 C-415.23855376 256.92560296 -422.571645 256.8109813 -429.90473449 256.69616115 C-444.93644023 256.46086211 -459.9681994 256.2291653 -475 256 C-475 255.34 -475 254.68 -475 254 C-474.41847168 253.69932617 -473.83694336 253.39865234 -473.23779297 253.08886719 C-462.6665515 247.61606247 -452.11997095 242.10867168 -441.6875 236.375 C-432.29900555 231.21841436 -422.84629806 226.1896773 -413.375 221.1875 C-398.21911278 213.18182074 -383.10134776 205.10820849 -368 197 C-352.67182905 188.77389623 -337.33029018 180.57437333 -321.96411133 172.41955566 C-307.9555512 164.98450186 -293.97474098 157.49844673 -280 150 C-275.41706298 147.54092693 -270.83379412 145.08247506 -266.25 142.625 C-265.10934082 142.01342041 -263.96868164 141.40184082 -262.79345703 140.77172852 C-256.50182603 137.40149368 -250.20419873 134.04294516 -243.8984375 130.69921875 C-243.2165184 130.33761154 -242.5345993 129.97600433 -241.83201599 129.60343933 C-239.07635609 128.14231848 -236.32066054 126.68126491 -233.56484985 125.22042847 C-224.27649246 120.29495458 -215.02686026 115.30558431 -205.81103516 110.24536133 C-198.4549768 106.21869068 -191.02372212 102.34542363 -183.57910156 98.4855957 C-177.2392145 95.1903685 -170.94930268 91.81605442 -164.6875 88.375 C-155.25844249 83.1954386 -145.76309624 78.14782149 -136.25 73.125 C-126.10394436 67.76740247 -115.96997283 62.39094197 -105.875 56.9375 C-96.27192732 51.7497892 -86.6427411 46.6134279 -77 41.5 C-66.28450978 35.81747579 -55.58928739 30.09971802 -44.91772461 24.33496094 C-38.75022439 21.00739726 -32.57058283 17.70419327 -26.37890625 14.421875 C-25.64586273 14.03318237 -24.91281921 13.64448975 -24.15756226 13.24401855 C-20.54579057 11.32948835 -16.93284044 9.41722248 -13.31835938 7.5078125 C-12.00518863 6.8125372 -10.69203666 6.11722647 -9.37890625 5.421875 C-7.63975952 4.50293457 -7.63975952 4.50293457 -5.86547852 3.56542969 C-2.92544132 2.01376739 -2.92544132 2.01376739 0 0 Z " fill="#4DCFD0" transform="translate(482,44)"/>
<path d="M0 0 C0.99 0.495 0.99 0.495 2 1 C-5.47320848 53.4365857 -12.95447934 105.87201563 -20.44662329 158.30589937 C-21.33035943 164.49078979 -22.21402855 170.67568979 -23.09765625 176.8605957 C-23.2735779 178.09194206 -23.44949955 179.32328841 -23.63075216 180.59194829 C-26.48219397 200.55147839 -29.32820084 220.51177985 -32.17221348 240.47236971 C-35.08875133 260.94111232 -38.01109676 281.40901963 -40.93887866 301.87615699 C-42.74649713 314.51392431 -44.5495375 327.15232765 -46.34679808 339.79157224 C-47.57829202 348.44895141 -48.81540644 357.10551552 -50.05701493 365.76144985 C-50.77407367 370.76165702 -51.48858078 375.76219527 -52.19643974 380.76371384 C-52.84377914 385.33722662 -53.49812568 389.90967832 -54.15820201 394.4813697 C-54.39646523 396.14051551 -54.63209299 397.80004223 -54.86489896 399.45996258 C-55.18036923 401.70655719 -55.50518271 403.95160245 -55.83247948 406.19649982 C-56.10018231 408.0721284 -56.10018231 408.0721284 -56.37329328 409.98564845 C-57 413 -57 413 -59 416 C-65.0021384 409.08370825 -70.79253378 402.05858685 -76.3125 394.75 C-80.74381724 388.88364161 -85.29432266 383.14863747 -90 377.5 C-95.20740431 371.24680228 -100.2004997 364.86722181 -105.10546875 358.375 C-109.50456805 352.58054474 -114.10540038 346.9753658 -118.76074219 341.38598633 C-123.45533938 335.72412446 -127.93212834 329.9179633 -132.36474609 324.04980469 C-136.40369529 318.72193535 -140.61768287 313.58408969 -144.9765625 308.515625 C-147 306 -147 306 -148.39453125 303.640625 C-150.62059759 299.97926042 -153.33208019 296.79456923 -156.0625 293.5 C-160.33504816 288.28388064 -164.59702544 283.06210562 -168.75 277.75 C-169.54921875 276.73421875 -170.3484375 275.7184375 -171.171875 274.671875 C-173.72486121 270.94058746 -173.72486121 270.94058746 -174 268 C-172.85107422 265.56835938 -172.85107422 265.56835938 -171.0546875 262.84375 C-170.06698364 261.32491211 -170.06698364 261.32491211 -169.05932617 259.77539062 C-167.97808472 258.15407227 -167.97808472 258.15407227 -166.875 256.5 C-166.13593676 255.37252322 -165.39807329 254.24425912 -164.66137695 253.11523438 C-163.16533682 250.82638786 -161.66266289 248.54213767 -160.15380859 246.26171875 C-157.67515089 242.50804986 -155.22606993 238.73595652 -152.78125 234.96020508 C-151.19809734 232.51635867 -149.60964961 230.07603745 -148.01953125 227.63671875 C-145.12917203 223.20101896 -142.24988035 218.75824407 -139.375 214.3125 C-138.92858154 213.62220703 -138.48216309 212.93191406 -138.0222168 212.22070312 C-137.1290108 210.83939311 -136.23586278 209.4580456 -135.34277344 208.07666016 C-133.52271662 205.26185956 -131.70171158 202.44767306 -129.88061523 199.63354492 C-128.95814388 198.20799636 -128.03578108 196.78237755 -127.11352539 195.35668945 C-124.8861784 191.91363957 -122.65761633 188.47139259 -120.42578125 185.03125 C-115.00168199 176.66620167 -109.61687258 168.27688722 -104.25 159.875 C-97.12325731 148.72157146 -89.90671715 137.62881741 -82.66503906 126.54980469 C-75.79679006 116.03191722 -69.01306858 105.46074268 -62.25 94.875 C-55.12315708 83.72163476 -47.90671788 72.62881853 -40.66503906 61.54980469 C-38.29015758 57.91296272 -35.92333393 54.27097426 -33.5625 50.625 C-33.13670654 49.96765869 -32.71091309 49.31031738 -32.2722168 48.63305664 C-29.54812835 44.41874038 -26.84583241 40.19097178 -24.15234375 35.95703125 C-3.47331459 3.47331459 -3.47331459 3.47331459 0 0 Z " fill="#4DCFD0" transform="translate(482,47)"/>
<path d="M0 0 C-9.10969352 14.26968042 -18.25802379 28.51210418 -27.50048828 42.69628906 C-30.3744193 47.11153053 -33.24230688 51.53076622 -36.09204102 55.96166992 C-38.26684628 59.34124377 -40.46438363 62.70020433 -42.71875 66.02734375 C-43.14575195 66.66623535 -43.57275391 67.30512695 -44.01269531 67.96337891 C-44.81430965 69.1613716 -45.62561294 70.35296018 -46.44824219 71.53662109 C-48.50803318 74.49843042 -48.50803318 74.49843042 -48.75244141 77.96606445 C-47.92982633 80.18968748 -46.96500022 81.5845157 -45.4453125 83.3984375 C-44.91776367 84.03612061 -44.39021484 84.67380371 -43.84667969 85.33081055 C-43.27852539 86.00539307 -42.71037109 86.67997559 -42.125 87.375 C-40.94462562 88.80542305 -39.7649514 90.23642413 -38.5859375 91.66796875 C-37.9887793 92.38903809 -37.39162109 93.11010742 -36.77636719 93.85302734 C-34.07858905 97.11364595 -31.4005307 100.38836885 -28.75 103.6875 C-28.28480957 104.25065918 -27.81961914 104.81381836 -27.34033203 105.39404297 C-24.77633422 108.60073407 -23.25344377 110.88627268 -23 115 C-23.96784497 117.5280586 -24.97494902 119.74308414 -26.234375 122.1171875 C-26.58281967 122.80139267 -26.93126434 123.48559784 -27.29026794 124.1905365 C-28.04004667 125.65902271 -28.79616451 127.12428621 -29.55795288 128.58657837 C-31.17256282 131.68621114 -32.75654341 134.80115934 -34.34294128 137.91529846 C-35.13720449 139.4732978 -35.93311173 141.03046012 -36.73066711 142.58677673 C-39.64887629 148.2833301 -42.46089994 154.02160172 -45.1875 159.8125 C-50.38987539 170.77903949 -55.67284245 181.70642043 -60.98086548 192.62216187 C-61.98996206 194.69985197 -62.99679548 196.77864283 -64.00131226 198.85855103 C-65.4220432 201.79924053 -66.85069353 204.73595539 -68.28125 207.671875 C-68.71206375 208.56768784 -69.1428775 209.46350067 -69.58674622 210.38645935 C-69.9918895 211.21380081 -70.39703278 212.04114227 -70.81445312 212.89355469 C-71.34093445 213.97863312 -71.34093445 213.97863312 -71.87805176 215.08563232 C-73.03835303 217.06544135 -74.31047134 218.45924486 -76 220 C-82.59891912 212.38235374 -88.67573273 204.47678369 -94.61816406 196.34008789 C-98.47928982 191.05570424 -102.38893141 185.81578554 -106.375 180.625 C-107.16052246 179.60188721 -107.16052246 179.60188721 -107.96191406 178.55810547 C-109.05589706 177.13408119 -110.15014178 175.71025794 -111.24462891 174.28662109 C-119.44398414 163.60579201 -127.6016616 152.89204663 -135.6875 142.125 C-136.15615479 141.50165771 -136.62480957 140.87831543 -137.10766602 140.23608398 C-137.98144172 139.06972461 -138.85120552 137.90034546 -139.71630859 136.72753906 C-140.62104846 135.50997739 -141.54228907 134.3045919 -142.47509766 133.10839844 C-143.72753713 131.46174427 -144.87324439 129.7350782 -146 128 C-145.67 127.01 -145.34 126.02 -145 125 C-146.62043682 122.35532481 -148.28393491 119.92263038 -150.125 117.4375 C-150.66979004 116.6851709 -151.21458008 115.9328418 -151.77587891 115.15771484 C-152.93032648 113.5651117 -154.08913792 111.9756641 -155.25195312 110.38916016 C-156.91513314 108.11599262 -158.56230363 105.83231006 -160.203125 103.54296875 C-166.99503913 94.07408739 -173.88746077 84.67939791 -180.80859375 75.3046875 C-181.33437012 74.59022461 -181.86014648 73.87576172 -182.40185547 73.13964844 C-183.49834687 71.6716297 -184.61303895 70.21708278 -185.74267578 68.77441406 C-186.56807861 67.71432129 -186.56807861 67.71432129 -187.41015625 66.6328125 C-188.15664429 65.69139404 -188.15664429 65.69139404 -188.91821289 64.73095703 C-190 63 -190 63 -190 60 C-150.01284263 46.58223278 -109.95529092 33.36360314 -69.73937988 20.64682007 C-56.41617464 16.43292006 -43.13520226 12.10851171 -29.89624023 7.63671875 C-26.26767532 6.41356893 -22.63530732 5.20295799 -19 4 C-18.29367432 3.7643634 -17.58734863 3.52872681 -16.85961914 3.28594971 C-14.66465169 2.55728458 -12.46581503 1.84162702 -10.265625 1.12890625 C-9.58449646 0.90105942 -8.90336792 0.67321259 -8.20159912 0.4384613 C-3.34311044 -1.11437015 -3.34311044 -1.11437015 0 0 Z " fill="#0C797A" transform="translate(358,239)"/>
<path d="M0 0 C0.33 0.66 0.66 1.32 1 2 C-0.19311523 4.21704102 -0.19311523 4.21704102 -2.05859375 7.00390625 C-3.09040771 8.56081177 -3.09040771 8.56081177 -4.14306641 10.14916992 C-4.51635071 10.70446381 -4.88963501 11.25975769 -5.27423096 11.83187866 C-6.85092276 14.17755827 -8.4103277 16.53453603 -9.97064209 18.89112854 C-10.77986782 20.11309217 -11.58997994 21.33446923 -12.40093994 22.55528259 C-16.38155501 28.55318181 -20.2600655 34.61451162 -24.125 40.6875 C-31.12169155 51.65680161 -38.21648841 62.55967427 -45.33496094 73.45019531 C-52.20320994 83.96808278 -58.98693142 94.53925732 -65.75 105.125 C-72.87684292 116.27836524 -80.09328212 127.37118147 -87.33496094 138.45019531 C-94.40838629 149.28228541 -101.39824308 160.1679832 -108.375 171.0625 C-109.05361084 172.12194824 -109.73222168 173.18139648 -110.43139648 174.27294922 C-111.08052002 175.28760254 -111.72964355 176.30225586 -112.3984375 177.34765625 C-113.03088379 178.31767578 -113.66333008 179.28769531 -114.31494141 180.28710938 C-116.00113636 182.89179783 -116.00113636 182.89179783 -117.13427734 185.36914062 C-119.46762193 190.09951637 -121.7495302 191.64584477 -126.7421875 193.3984375 C-129.11123585 194.08742248 -131.48949567 194.74534972 -133.875 195.375 C-136.1860703 196.02448111 -138.49588751 196.67843142 -140.8046875 197.3359375 C-141.45599136 197.51881317 -142.10729523 197.70168884 -142.77833557 197.8901062 C-164.80401856 204.15146868 -186.49172164 211.78690599 -208.23596478 218.95709038 C-232.02731947 226.80179337 -255.83027007 234.60757024 -279.6875 242.25 C-280.71517487 242.58002014 -281.74284973 242.91004028 -282.80166626 243.25006104 C-302.89802588 249.6986905 -302.89802588 249.6986905 -312 252 C-308.34356019 248.25504302 -304.54304306 244.77175251 -300.5625 241.375 C-299.64670166 240.59177368 -299.64670166 240.59177368 -298.71240234 239.79272461 C-294.02906003 235.81506673 -289.24394781 231.98644337 -284.39282227 228.21630859 C-279.87763856 224.70512537 -275.42981354 221.11815944 -271 217.5 C-265.47681024 212.99215111 -259.90815021 208.55156935 -254.2890625 204.1640625 C-249.12398193 200.12080938 -244.04000757 195.98152753 -238.95874023 191.83374023 C-234.69689091 188.36106518 -230.39868899 184.94173694 -226.0625 181.5625 C-220.8024431 177.46062077 -215.63749637 173.25421962 -210.5 169 C-204.8085006 164.28702568 -199.06675554 159.65547156 -193.23828125 155.11328125 C-188.77910696 151.63146023 -184.38265769 148.07751928 -180 144.5 C-175.03767613 140.45017816 -170.04841747 136.44200387 -165 132.5 C-158.48770583 127.41402155 -152.0763363 122.20903861 -145.671875 116.98828125 C-142.02458406 114.01583171 -138.35135699 111.07700432 -134.671875 108.14453125 C-131.8770181 105.90129084 -129.09806375 103.63935364 -126.3203125 101.375 C-120.023772 96.24272548 -113.69257157 91.16414533 -107.29003906 86.16479492 C-102.81624841 82.66277027 -98.40164329 79.09214568 -94 75.5 C-89.03762183 71.4502431 -84.048419 67.44200507 -79 63.5 C-72.48770583 58.41402155 -66.0763363 53.20903861 -59.671875 47.98828125 C-56.02458406 45.01583171 -52.35135699 42.07700432 -48.671875 39.14453125 C-45.8770181 36.90129084 -43.09806375 34.63935364 -40.3203125 32.375 C-34.03389283 27.25097491 -27.7133247 22.17992928 -21.32080078 17.18896484 C-14.13155066 11.5616097 -7.07026503 5.77558013 0 0 Z " fill="#39AAAB" transform="translate(480,47)"/>
<path d="M0 0 C-0.76183594 0.88300781 -1.52367187 1.76601563 -2.30859375 2.67578125 C-7.09719293 8.23753968 -11.87443313 13.80109717 -16.5 19.5 C-20.88712902 24.90076172 -25.41223412 30.174677 -29.94921875 35.44921875 C-36.17522367 42.68816124 -42.3608624 49.95865909 -48.375 57.375 C-52.54156423 62.49733524 -56.86201281 67.47417378 -61.20043945 72.45043945 C-65.114619 76.95034454 -68.91581311 81.52781824 -72.66796875 86.1640625 C-76.02211626 90.24297555 -79.47092227 94.23887542 -82.92797852 98.23071289 C-83.88044357 99.3337253 -84.82766634 100.44129529 -85.76855469 101.55419922 C-86.79265887 102.75656738 -87.84948763 103.9309691 -88.9140625 105.09765625 C-90.18445823 106.96573308 -90.18445823 106.96573308 -90.02734375 109.28515625 C-88.542721 113.20839889 -86.14305377 116.16017297 -83.5625 119.4375 C-82.45567854 120.87656478 -81.35023028 122.31668666 -80.24609375 123.7578125 C-79.69421387 124.47485352 -79.14233398 125.19189453 -78.57373047 125.93066406 C-76.35733827 128.84505133 -74.23479862 131.82049413 -72.125 134.8125 C-68.15104157 140.42580777 -64.08940958 145.97030212 -60 151.5 C-54.25062524 159.2757169 -48.58782533 167.1075186 -43 175 C-43.33 175.66 -43.66 176.32 -44 177 C-51.85571279 166.9848362 -59.61309585 156.90470189 -67.22827148 146.70532227 C-72.64646337 139.45317264 -78.12838644 132.25094182 -83.63427734 125.06518555 C-84.868772 123.45078553 -86.09933401 121.83336766 -87.32519531 120.21240234 C-88.40753362 118.78264291 -89.4999996 117.36046916 -90.60449219 115.94775391 C-91.81536119 114.35562367 -92.92017272 112.6837623 -94 111 C-93.505 109.515 -93.505 109.515 -93 108 C-94.62043682 105.35532481 -96.28393491 102.92263038 -98.125 100.4375 C-98.66979004 99.6851709 -99.21458008 98.9328418 -99.77587891 98.15771484 C-100.93032648 96.5651117 -102.08913792 94.9756641 -103.25195312 93.38916016 C-104.91513314 91.11599262 -106.56230363 88.83231006 -108.203125 86.54296875 C-114.99503913 77.07408739 -121.88746077 67.67939791 -128.80859375 58.3046875 C-129.33437012 57.59022461 -129.86014648 56.87576172 -130.40185547 56.13964844 C-131.49834687 54.6716297 -132.61303895 53.21708278 -133.74267578 51.77441406 C-134.29294434 51.06768555 -134.84321289 50.36095703 -135.41015625 49.6328125 C-135.90781494 49.0052002 -136.40547363 48.37758789 -136.91821289 47.73095703 C-138 46 -138 46 -138 43 C-110.24847445 33.68792246 -82.43740589 24.55944384 -54.61065674 15.47489929 C-47.89648098 13.28085087 -41.18766283 11.07168995 -34.4855957 8.84092712 C-30.73132791 7.5919477 -26.97467675 6.3502446 -23.21765137 5.10958862 C-21.50360666 4.54130036 -19.79076825 3.96935932 -18.07922363 3.39358521 C-15.75630947 2.61243207 -13.42960148 1.84384248 -11.1015625 1.078125 C-10.09650162 0.73439095 -10.09650162 0.73439095 -9.07113647 0.38371277 C-5.71486707 -0.70542358 -3.34660256 -1.35460223 0 0 Z " fill="#128B8C" transform="translate(306,256)"/>
<path d="M0 0 C0.33 0.66 0.66 1.32 1 2 C0.17407227 3.66625977 0.17407227 3.66625977 -1.18359375 5.69140625 C-1.94422119 6.84153198 -1.94422119 6.84153198 -2.72021484 8.01489258 C-3.28691895 8.85560303 -3.85362305 9.69631348 -4.4375 10.5625 C-5.64821249 12.38991187 -6.85779723 14.21807127 -8.06640625 16.046875 C-9.03151123 17.5019043 -9.03151123 17.5019043 -10.01611328 18.98632812 C-13.35642342 24.06050834 -16.611742 29.18857043 -19.875 34.3125 C-26.95744578 45.40514835 -34.13435989 56.43402619 -41.33496094 67.45019531 C-48.20320994 77.96808278 -54.98693142 88.53925732 -61.75 99.125 C-68.87684292 110.27836524 -76.09328212 121.37118147 -83.33496094 132.45019531 C-90.40838629 143.28228541 -97.39824308 154.1679832 -104.375 165.0625 C-105.05361084 166.12194824 -105.73222168 167.18139648 -106.43139648 168.27294922 C-107.08052002 169.28760254 -107.72964355 170.30225586 -108.3984375 171.34765625 C-109.34867798 172.80316895 -109.34867798 172.80316895 -110.31811523 174.28808594 C-112.00334187 176.88755641 -112.00334187 176.88755641 -113.10571289 179.36035156 C-115.49584985 184.29579186 -118.02059309 185.73759046 -123.19921875 187.5390625 C-125.68692181 188.26382244 -128.18373785 188.95782794 -130.6875 189.625 C-131.99683971 189.99673264 -133.30527278 190.37167309 -134.61279297 190.74975586 C-137.20400301 191.49762886 -139.79820741 192.23326871 -142.39501953 192.96142578 C-147.93342337 194.5570082 -153.36759712 196.42483227 -158.80737305 198.32470703 C-161.68211052 199.30998727 -163.93488013 200 -167 200 C-165.72395841 197.24812688 -164.35527063 195.05483035 -162.34765625 192.78515625 C-161.82397461 192.18799805 -161.30029297 191.59083984 -160.76074219 190.97558594 C-160.20032227 190.34426758 -159.63990234 189.71294922 -159.0625 189.0625 C-157.88089746 187.71538115 -156.69991831 186.36771527 -155.51953125 185.01953125 C-154.92736816 184.34486816 -154.33520508 183.67020508 -153.72509766 182.97509766 C-151.20541223 180.09026111 -148.72224121 177.17552232 -146.25 174.25 C-145.79810303 173.71560303 -145.34620605 173.18120605 -144.88061523 172.63061523 C-142.09312201 169.32366923 -139.34966969 165.98377463 -136.625 162.625 C-132.45843577 157.50266476 -128.13798719 152.52582622 -123.79956055 147.54956055 C-119.87510903 143.03784637 -116.06573217 138.44674445 -112.30078125 133.80078125 C-108.62227613 129.32287264 -104.82960344 124.94400705 -101.05078125 120.55078125 C-94.80572679 113.28968997 -88.6036885 105.99446571 -82.5625 98.5625 C-78.1485377 93.14143044 -73.60217195 87.84158026 -69.04296875 82.54296875 C-66.15769425 79.18857372 -63.29320938 75.81708011 -60.4375 72.4375 C-59.98777832 71.90527832 -59.53805664 71.37305664 -59.07470703 70.82470703 C-58.16931558 69.7528666 -57.26404183 68.68092674 -56.35888672 67.60888672 C-54.53290227 65.44696837 -52.70489675 63.2867642 -50.87670898 61.12670898 C-49.96068121 60.04433746 -49.04482764 58.96181847 -48.12915039 57.87915039 C-45.81543212 55.14363268 -43.49956105 52.40998789 -41.1796875 49.6796875 C-36.94920376 44.69685653 -32.7414632 39.70297285 -28.625 34.625 C-25.05066605 30.2272927 -21.35722995 25.9504924 -17.625 21.6875 C-11.48039416 14.66186279 -5.68807139 7.39791249 0 0 Z " fill="#289395" transform="translate(476,53)"/>
<path d="M0 0 C0.44730469 0.38671875 0.89460938 0.7734375 1.35546875 1.171875 C1.96003906 1.69265625 2.56460937 2.2134375 3.1875 2.75 C3.77917969 3.26046875 4.37085938 3.7709375 4.98046875 4.296875 C6.41222342 5.50431221 7.88944663 6.65874187 9.39453125 7.7734375 C12.58712374 10.50173993 14.97211277 13.53988828 17.5 16.875 C18.42620623 18.08140307 19.35328344 19.28713796 20.28125 20.4921875 C20.72726562 21.08225586 21.17328125 21.67232422 21.6328125 22.28027344 C22.97260345 24.01719023 22.97260345 24.01719023 24.4921875 25.57128906 C25.90625 27.0703125 25.90625 27.0703125 28 30 C27.70486062 34.83472523 25.97576516 38.50430293 23.7890625 42.77734375 C23.46555313 43.41592316 23.14204376 44.05450256 22.80873108 44.71243286 C22.11522201 46.07958365 21.4181614 47.4449377 20.71786499 48.80862427 C18.85658803 52.43434874 17.02233492 56.07374838 15.18359375 59.7109375 C14.81718277 60.43384476 14.45077179 61.15675201 14.07325745 61.90156555 C11.19664005 67.58406285 8.41272414 73.30579155 5.6875 79.0625 C4.83467765 80.84767643 3.98181045 82.63283143 3.12890625 84.41796875 C1.32894409 88.19315417 -0.45847346 91.97393686 -2.23486328 95.76025391 C-4.33603626 100.23618039 -6.45685233 104.70243631 -8.58724976 109.16452026 C-9.44242993 110.96451878 -10.29098421 112.76768094 -11.13272095 114.57400513 C-12.31904374 117.11762016 -13.52789343 119.64933203 -14.7421875 122.1796875 C-15.27447716 123.34199638 -15.27447716 123.34199638 -15.81752014 124.52778625 C-18.37738173 129.77744007 -18.37738173 129.77744007 -21.76611328 130.98876953 C-22.5032959 130.99247559 -23.24047852 130.99618164 -24 131 C-24.22205575 125.28780717 -23.39429244 120.1981869 -22.1875 114.625 C-20.71167501 107.6765633 -19.40254227 100.7095573 -18.18247986 93.71212769 C-16.91586518 86.46724033 -15.55718116 79.24118504 -14.18148804 72.0163269 C-13.73489742 69.67067595 -13.2897766 67.32474977 -12.8449707 64.97875977 C-11.57453715 58.280167 -10.30102306 51.58216072 -9.02685547 44.88427734 C-8.2313393 40.7023052 -7.43706078 36.52009938 -6.64343262 32.33776855 C-6.19987428 30.00264469 -5.75475672 27.66782174 -5.30957031 25.33300781 C-5.03290868 23.87700904 -4.75653294 22.42095592 -4.48046875 20.96484375 C-4.28458664 19.93286362 -4.28458664 19.93286362 -4.08474731 18.8800354 C-3.09983418 13.64363724 -2.22899065 8.39389731 -1.4230957 3.12719727 C-1 1 -1 1 0 0 Z " fill="#005859" transform="translate(307,320)"/>
<path d="M0 0 C0.82177734 1.50626953 0.82177734 1.50626953 1.66015625 3.04296875 C3.95235539 7.04954392 6.6262688 10.65905823 9.4375 14.3125 C15.53268337 22.33708716 21.44083412 30.48539667 27.31933594 38.66943359 C29.06082348 41.08434354 30.81407565 43.49032991 32.5703125 45.89453125 C33.15498291 46.69713379 33.73965332 47.49973633 34.34204102 48.32666016 C35.45439941 49.85305517 36.56930063 51.37760177 37.68725586 52.89990234 C40.76561518 57.1339313 43.48895363 61.40544753 46 66 C42 66 42 66 40.48291016 64.54150391 C40.00644043 63.86007324 39.5299707 63.17864258 39.0390625 62.4765625 C38.4925 61.71214844 37.9459375 60.94773437 37.3828125 60.16015625 C36.51269531 58.90525391 36.51269531 58.90525391 35.625 57.625 C34.36941377 55.86559661 33.11154329 54.10782144 31.8515625 52.3515625 C30.8910498 51.00626465 30.8910498 51.00626465 29.91113281 49.63378906 C27.03995853 45.67693825 24.02705812 41.83809901 21 38 C12.02541547 26.56269918 3.42581501 14.84635071 -5 3 C-2.25 0 -2.25 0 0 0 Z " fill="#38A9AA" transform="translate(168,299)"/>
<path d="M0 0 C3.90497637 1.30165879 5.15423988 3.67625945 7.375 6.9375 C8.27273771 8.22444677 9.17121099 9.51088065 10.0703125 10.796875 C10.78429199 11.82458008 10.78429199 11.82458008 11.51269531 12.87304688 C14.05297399 16.50582886 16.65192306 20.09593667 19.25 23.6875 C19.79229248 24.43862061 20.33458496 25.18974121 20.89331055 25.96362305 C25.5363975 32.38453871 30.23890613 38.76077402 34.94873047 45.1328125 C40.04276679 52.03431718 45.04351204 58.99924626 50 66 C49.67 66.66 49.34 67.32 49 68 C41.14428721 57.9848362 33.38690415 47.90470189 25.77172852 37.70532227 C20.35353663 30.45317264 14.87161356 23.25094182 9.36572266 16.06518555 C5.8239733 11.43349256 2.3579766 6.76678287 -1 2 C-0.67 1.34 -0.34 0.68 0 0 Z " fill="#279395" transform="translate(213,365)"/>
<path d="M0 0 C0.33 0.66 0.66 1.32 1 2 C-0.98 4.97 -2.96 7.94 -5 11 C-5.66 10.34 -6.32 9.68 -7 9 C-4.69 6.03 -2.38 3.06 0 0 Z " fill="#2D9B9C" transform="translate(476,53)"/>
</svg>
